<svg width="114" height="114" viewBox="0 0 114 114" fill="none" xmlns="http://www.w3.org/2000/svg">
<mask id="path-1-inside-1_219_335" fill="white">
<path d="M27.7081 29.7605C23.1243 34.6897 19.8585 40.6959 18.2133 47.2228C16.568 53.7497 16.5964 60.5863 18.2959 67.0993C19.9954 73.6124 23.311 79.5912 27.9356 84.4821C32.5602 89.373 38.3443 93.0177 44.7521 95.0787C51.1599 97.1398 57.9842 97.5504 64.5929 96.2727C71.2016 94.995 77.381 92.0702 82.5588 87.7692C87.7366 83.4682 91.7453 77.9302 94.2135 71.6679C96.6818 65.4057 97.5299 58.6219 96.6792 51.9448L95.4295 52.104C96.2534 58.5708 95.432 65.141 93.0415 71.206C90.651 77.271 86.7685 82.6346 81.7538 86.8001C76.7391 90.9657 70.7544 93.7983 64.3538 95.0358C57.9532 96.2733 51.3438 95.8756 45.1379 93.8794C38.9319 91.8833 33.33 88.3534 28.851 83.6165C24.372 78.8797 21.1609 73.0892 19.5149 66.7813C17.8689 60.4734 17.8414 53.8521 19.4349 47.5308C21.0283 41.2094 24.1912 35.3924 28.6307 30.6184L27.7081 29.7605Z"/>
</mask>
<path d="M27.7081 29.7605C23.1243 34.6897 19.8585 40.6959 18.2133 47.2228C16.568 53.7497 16.5964 60.5863 18.2959 67.0993C19.9954 73.6124 23.311 79.5912 27.9356 84.4821C32.5602 89.373 38.3443 93.0177 44.7521 95.0787C51.1599 97.1398 57.9842 97.5504 64.5929 96.2727C71.2016 94.995 77.381 92.0702 82.5588 87.7692C87.7366 83.4682 91.7453 77.9302 94.2135 71.6679C96.6818 65.4057 97.5299 58.6219 96.6792 51.9448L95.4295 52.104C96.2534 58.5708 95.432 65.141 93.0415 71.206C90.651 77.271 86.7685 82.6346 81.7538 86.8001C76.7391 90.9657 70.7544 93.7983 64.3538 95.0358C57.9532 96.2733 51.3438 95.8756 45.1379 93.8794C38.9319 91.8833 33.33 88.3534 28.851 83.6165C24.372 78.8797 21.1609 73.0892 19.5149 66.7813C17.8689 60.4734 17.8414 53.8521 19.4349 47.5308C21.0283 41.2094 24.1912 35.3924 28.6307 30.6184L27.7081 29.7605Z" stroke="url(#paint0_radial_219_335)" stroke-width="2" stroke-dasharray="5 5" mask="url(#path-1-inside-1_219_335)"/>
<path d="M38.1686 18.1119L30.6097 26.8925C30.2694 27.2879 29.7481 27.478 29.2332 27.3946L12.0677 24.6155C11.442 24.5143 10.8202 24.8171 10.5143 25.3722L9.59492 27.0403C9.19065 27.7739 9.46538 28.6964 10.2051 29.0892L21.6729 35.1789C22.4971 35.6165 22.7259 36.6925 22.1511 37.4276L17.6644 43.1659C17.2803 43.6572 16.6323 43.8596 16.0368 43.6742L13.5399 42.8968C12.9434 42.7111 12.2942 42.9146 11.9104 43.4076L11.2051 44.3135C10.7065 44.954 10.8079 45.875 11.4339 46.3917L19.7146 53.2271C20.3362 53.7402 21.2522 53.6703 21.7888 53.0689L22.0268 52.802C22.3908 52.394 22.504 51.8202 22.3221 51.3045L21.288 48.3731C21.1091 47.8659 21.2154 47.3017 21.5667 46.8944L26.3519 41.3461C27.0047 40.5892 28.2013 40.6705 28.7457 41.5087L36.0033 52.6824C36.4821 53.4195 37.4891 53.5889 38.1827 53.049L39.5798 51.9614C40.0619 51.5861 40.2683 50.9559 40.1015 50.3682L34.9133 32.0874C34.7819 31.6244 34.8806 31.1264 35.1788 30.7486L42.3599 21.649C42.8562 21.0201 42.7707 20.1122 42.1656 19.587L40.2887 17.9578C39.6612 17.4132 38.7106 17.4823 38.1686 18.1119Z" fill="#474747"/>
<defs>
<radialGradient id="paint0_radial_219_335" cx="0" cy="0" r="1" gradientUnits="userSpaceOnUse" gradientTransform="translate(51.5 78) rotate(113.714) scale(58.4337 76.5543)">
<stop/>
<stop offset="1" stop-opacity="0"/>
</radialGradient>
</defs>
</svg>
